<?xml version="1.0" standalone="no"?>
<!DOCTYPE svg PUBLIC "-//W3C//DTD SVG 20010904//EN"
 "http://www.w3.org/TR/2001/REC-SVG-20010904/DTD/svg10.dtd">
<svg version="1.0" xmlns="http://www.w3.org/2000/svg"
 width="1500.000000pt" height="1500.000000pt" viewBox="0 0 1500.000000 1500.000000"
 preserveAspectRatio="xMidYMid meet">
<metadata>
Created by potrace 1.11, written by Peter Selinger 2001-2013
</metadata>
<g transform="translate(0.000000,1500.000000) scale(0.100000,-0.100000)"
fill="#000000" stroke="none">
<path d="M9287 14848 c-56 -5 -107 -14 -120 -22 -12 -8 -52 -20 -89 -26 -36
-5 -95 -24 -130 -40 -68 -33 -65 -35 42 -31 39 2 49 -2 74 -28 16 -17 27 -33
24 -36 -3 -4 -43 1 -89 9 -508 94 -1174 112 -1919 50 -860 -70 -1440 -192
-1840 -386 -69 -33 -136 -60 -149 -59 -27 1 -64 -26 -55 -41 3 -5 0 -15 -6
-23 -10 -12 -30 -5 -130 45 -576 289 -1003 339 -1775 209 -819 -138 -1423
-297 -1915 -506 -359 -152 -860 -437 -1131 -644 l-79 -60 0 -96 0 -95 263 5
c144 2 432 10 639 17 679 24 1182 -15 1515 -116 321 -97 519 -259 643 -528 49
-105 64 -172 63 -278 -2 -153 -67 -297 -217 -485 -291 -361 -956 -754 -1472
-868 -67 -14 -131 -35 -147 -46 -27 -20 -34 -20 -160 -9 -159 14 -253 31 -326
59 -83 31 -74 16 14 -24 220 -100 386 -133 745 -148 192 -8 321 -7 525 2 149
7 284 15 301 18 30 5 30 4 26 -31 -7 -60 17 -256 42 -352 14 -49 47 -146 74
-215 28 -68 60 -158 72 -199 36 -119 123 -277 206 -374 19 -22 34 -47 34 -57
0 -21 28 -45 39 -33 13 14 33 91 116 434 104 435 165 613 288 841 l56 106 91
15 90 15 10 -37 c13 -49 111 -204 164 -260 23 -25 76 -85 116 -135 134 -162
277 -302 339 -331 85 -40 163 -68 185 -69 5 0 11 76 13 169 4 167 5 172 43
283 22 63 62 166 89 231 27 64 60 144 74 177 l25 60 65 3 c61 3 66 1 72 -20 9
-31 189 -406 234 -488 20 -36 53 -110 73 -164 21 -54 63 -139 93 -188 30 -48
55 -93 55 -98 0 -8 31 -30 44 -30 7 0 56 90 154 280 159 311 240 433 396 600
l90 95 230 11 c127 6 290 14 361 18 l130 7 29 -63 c35 -74 133 -179 366 -392
296 -271 471 -413 564 -457 32 -15 71 -40 87 -55 l28 -27 -72 -47 c-233 -152
-430 -364 -536 -576 -60 -122 -82 -204 -88 -329 -7 -142 15 -237 91 -390 66
-131 149 -246 276 -378 l93 -97 -309 -313 c-556 -562 -727 -756 -901 -1024
-77 -118 -160 -297 -185 -398 -19 -78 -20 -94 -10 -156 10 -60 30 -126 57
-192 7 -18 3 -19 -71 -12 -332 27 -596 62 -699 91 -231 66 -604 217 -875 355
-385 196 -691 415 -1005 719 -157 153 -227 213 -285 249 -37 22 -70 28 -70 11
0 -5 -9 -19 -20 -30 -15 -15 -20 -33 -20 -77 0 -81 46 -387 80 -528 115 -482
413 -1258 716 -1865 366 -732 683 -1156 1358 -1816 246 -241 258 -255 243
-272 -40 -44 -3 -99 58 -88 20 4 42 9 48 12 7 2 73 -52 147 -121 74 -68 139
-125 143 -125 11 0 0 246 -13 290 -14 50 -13 57 14 64 13 3 30 8 38 11 9 4 50
-42 122 -135 417 -547 884 -1024 1367 -1396 295 -229 651 -463 891 -589 l118
-62 -82 -46 c-118 -67 -272 -125 -365 -137 -43 -6 -89 -15 -103 -20 -14 -5
-159 -14 -322 -19 -330 -11 -353 -15 -353 -66 0 -54 26 -59 333 -63 150 -2
271 -7 268 -9 -3 -3 -31 -9 -63 -13 -46 -6 -29 -8 81 -9 81 0 182 5 245 15
326 48 887 196 1343 354 l178 62 272 -204 c385 -287 665 -472 808 -535 70 -31
82 -33 187 -33 l111 0 42 48 c47 53 73 98 67 115 -2 7 50 68 117 137 245 253
343 374 573 705 290 417 423 649 687 1195 l16 35 -6 -75 c-15 -194 -76 -484
-150 -711 -45 -140 -50 -146 -129 -197 -19 -13 -19 -13 5 -7 14 3 41 9 60 12
75 13 291 173 455 338 218 217 500 650 680 1042 112 243 191 449 306 798 60
182 120 350 133 375 27 51 66 171 66 204 0 39 85 199 157 297 182 245 334 497
411 680 154 364 272 801 318 1179 22 181 25 653 6 840 -64 615 -196 1105 -362
1350 -48 71 -158 179 -190 187 -32 8 -90 43 -90 54 0 4 -16 -1 -35 -12 -21
-13 -47 -43 -67 -77 -17 -32 -64 -102 -103 -157 -39 -55 -86 -127 -105 -159
-103 -183 -385 -448 -704 -664 -267 -181 -466 -280 -966 -480 -96 -39 -261
-106 -366 -150 l-191 -78 -54 47 -54 48 60 1 c46 1 55 3 38 10 -13 5 -23 14
-23 20 0 5 -9 10 -21 10 -11 0 -18 4 -14 9 3 5 -3 11 -12 14 -15 3 -14 6 7 15
l25 11 -25 0 c-15 1 -30 -3 -36 -9 -7 -7 -23 -3 -49 10 -22 11 -47 20 -57 20
-9 0 -45 24 -80 53 -167 142 -312 235 -463 298 -101 42 -285 93 -379 104 l-58
8 63 55 c109 95 347 332 433 432 105 121 195 240 263 348 48 77 53 91 53 142
0 31 -5 61 -12 68 -22 22 -55 13 -77 -20 -11 -18 -29 -46 -40 -61 -39 -59
-252 -285 -381 -406 -178 -165 -298 -269 -504 -434 -185 -149 -201 -156 -310
-143 -86 10 -460 181 -726 332 -147 83 -381 235 -473 306 l-57 45 127 114
c166 147 376 358 484 484 427 499 539 855 377 1194 -33 70 -56 101 -132 176
-59 59 -113 102 -153 124 -72 37 -234 81 -300 81 l-44 0 49 58 c69 80 110 144
138 214 14 33 35 76 48 96 122 197 240 484 267 653 l12 69 18 -30 c11 -17 41
-58 67 -93 194 -248 418 -652 612 -1102 l82 -190 -21 -40 -22 -40 35 40 c20
22 52 70 71 107 20 37 45 73 56 78 39 21 161 302 208 480 57 212 110 616 118
893 3 114 8 207 11 207 14 0 807 -580 905 -662 l29 -24 -42 -53 c-37 -47 -39
-52 -19 -46 13 4 45 19 71 33 l46 26 56 -44 c180 -138 400 -332 680 -599 91
-87 152 -139 158 -133 35 35 63 370 54 642 -7 194 -31 487 -43 525 -7 23 -10
26 112 -76 306 -254 651 -675 911 -1111 67 -113 189 -294 205 -303 5 -4 9 35
9 95 0 192 -138 799 -282 1240 -128 394 -264 687 -376 811 -40 44 -43 51 -22
44 762 -233 1297 -452 1696 -693 71 -43 141 -86 157 -96 l27 -18 0 239 0 239
-27 41 c-117 175 -397 467 -620 646 -356 285 -789 527 -1077 601 l-49 13 134
66 c178 87 275 153 385 262 258 255 260 522 5 776 -280 278 -718 418 -1536
488 -518 45 -742 54 -1295 49 -735 -7 -969 8 -1043 63 -20 14 -39 20 -60 16
-17 -2 -54 2 -82 9 -162 44 -317 62 -448 52z m163 -148 c344 -47 576 -137 890
-344 152 -100 255 -182 420 -329 641 -574 994 -1067 1144 -1596 52 -183 52
-198 -2 -91 -73 148 -137 236 -256 356 -317 317 -714 457 -1331 469 l-202 4
-21 -29 c-27 -36 -28 -72 -2 -95 19 -17 20 -31 20 -228 0 -368 -47 -556 -192
-770 -144 -213 -499 -496 -832 -664 l-90 -45 42 50 c25 29 42 60 42 75 0 13 6
30 14 36 7 6 19 33 27 59 13 48 32 82 81 143 14 19 55 93 91 164 324 650 400
1243 251 1959 -19 89 -22 121 -13 126 8 6 7 10 -4 16 -8 5 -23 37 -32 72 -26
103 -114 370 -151 460 -19 45 -34 84 -34 87 0 3 21 5 48 6 38 1 42 2 22 9 -14
4 -38 8 -55 9 -25 1 -35 9 -60 53 -16 29 -32 56 -33 61 -2 4 13 5 35 2 21 -3
103 -14 183 -25z m1215 -80 c105 -6 303 -19 440 -30 138 -11 365 -26 505 -35
741 -44 1082 -85 1404 -166 372 -94 648 -263 742 -456 25 -51 29 -69 29 -148
0 -79 -4 -97 -29 -149 -16 -32 -57 -89 -92 -126 -119 -125 -270 -214 -576
-339 -299 -122 -327 -139 -259 -159 21 -7 61 -12 90 -12 43 0 51 -3 51 -19 0
-32 24 -41 116 -46 152 -7 325 -67 579 -199 498 -259 985 -684 1214 -1059 13
-21 34 -71 46 -111 l23 -73 -112 65 c-225 131 -554 284 -888 411 -344 132
-961 327 -1123 356 -73 13 -104 23 -113 37 -13 18 -16 18 -38 4 -13 -9 -38
-16 -56 -16 -44 0 -108 -18 -108 -31 0 -5 11 -15 25 -21 14 -6 25 -18 25 -25
0 -18 -75 -182 -113 -248 -16 -27 -46 -89 -67 -136 -54 -125 -142 -248 -249
-347 -58 -54 -136 -110 -128 -91 37 83 79 195 91 242 28 109 38 254 26 381
-42 458 -246 926 -593 1359 -286 358 -689 747 -1112 1075 l-157 122 108 0 c60
0 195 -5 299 -10z m-2522 -9 c13 -4 -8 -11 -60 -20 -320 -53 -746 -175 -1059
-304 -62 -26 -159 -58 -216 -71 -133 -31 -225 -66 -312 -118 -79 -47 -226
-182 -226 -208 0 -21 48 -34 68 -18 15 13 95 -44 297 -212 266 -221 364 -327
430 -464 42 -87 75 -210 75 -279 0 -96 -63 -272 -117 -329 -15 -15 -24 -31
-20 -34 8 -8 78 65 143 148 58 74 111 187 119 253 4 31 13 56 21 59 8 3 60 10
116 15 393 39 1150 47 1573 18 270 -19 435 -36 435 -46 -1 -17 -261 -79 -555
-131 -558 -100 -1149 -249 -1350 -340 -73 -33 -130 -80 -156 -131 -21 -42 -23
-57 -10 -78 7 -10 13 -11 31 -1 20 11 22 10 17 -4 -4 -9 -30 -90 -58 -179 -28
-89 -70 -223 -94 -297 -24 -74 -47 -158 -51 -187 -5 -39 -12 -56 -30 -68 -32
-21 -33 -69 -1 -89 12 -8 36 -16 52 -19 17 -3 330 -11 697 -18 367 -7 666 -14
664 -16 -5 -5 -158 -48 -306 -87 -653 -167 -1426 -273 -2250 -306 -1171 -47
-1186 -47 -1212 -23 -13 11 -42 19 -84 21 l-66 4 291 84 c342 98 649 199 851
279 493 195 799 421 933 690 77 154 92 264 48 362 -24 55 -140 175 -180 188
-14 4 -37 41 -70 108 -48 99 -250 430 -371 606 -145 212 -364 421 -757 720
-68 52 -123 97 -123 101 0 24 364 153 585 209 393 98 1067 181 1720 210 222
10 545 12 568 2z m1029 -81 c33 -67 168 -452 168 -480 0 -6 -4 -9 -8 -6 -11 7
-153 25 -325 42 -221 21 -736 29 -942 15 -354 -25 -685 -68 -960 -126 -122
-26 -431 -95 -487 -108 -3 -1 -29 16 -58 37 -36 28 -48 42 -38 47 7 4 90 42
183 84 94 42 188 88 210 100 59 34 206 78 635 189 513 133 1024 216 1356 220
170 2 194 8 194 48 0 42 36 12 72 -62z m-5107 -155 c203 -24 351 -63 566 -151
483 -195 708 -422 686 -689 -14 -157 -80 -291 -206 -415 -88 -86 -159 -135
-415 -282 -66 -38 -139 -83 -161 -99 -44 -32 -160 -84 -305 -136 -161 -58
-145 -69 41 -27 262 58 420 113 610 211 l126 64 179 -11 c559 -34 1058 -150
1328 -308 149 -88 170 -179 82 -357 -101 -203 -264 -344 -582 -503 -303 -152
-912 -354 -1539 -511 -550 -137 -1210 -251 -1930 -331 -199 -22 -753 -64 -745
-57 3 3 46 21 95 42 385 158 812 441 1045 693 358 388 422 720 209 1084 -235
402 -627 581 -1394 638 -179 13 -869 13 -1129 0 -109 -6 -262 -19 -339 -30
-77 -11 -142 -18 -144 -16 -12 11 295 213 518 341 682 393 1339 605 2464 795
199 33 298 47 465 63 98 10 360 5 475 -8z m1597 -683 c65 -57 118 -107 118
-110 -1 -4 -40 -25 -88 -47 -47 -22 -122 -61 -166 -87 -43 -27 -80 -48 -82
-48 -1 0 3 19 8 43 18 73 13 215 -10 287 -23 70 -78 169 -118 211 -13 14 -24
28 -24 33 0 12 233 -170 362 -282z m3403 -3486 c206 -56 343 -197 396 -407 92
-363 -209 -843 -925 -1473 l-88 -78 -100 98 c-54 55 -125 132 -156 173 l-56
73 34 31 c319 280 698 651 844 827 189 227 224 318 150 400 -56 62 -116 72
-252 44 -156 -32 -478 -173 -647 -284 -157 -103 -293 -259 -349 -400 -76 -193
-75 -335 5 -526 27 -64 29 -77 18 -92 -12 -15 -12 -15 1 -5 13 10 18 6 32 -18
12 -20 13 -29 5 -30 -7 0 -2 -4 11 -9 12 -5 22 -17 22 -25 0 -9 4 -14 9 -11 4
3 30 -22 56 -57 62 -80 246 -267 263 -267 9 0 11 -7 7 -22 -6 -17 -4 -20 9
-15 11 5 20 -1 28 -18 6 -13 15 -22 20 -19 5 3 12 -4 15 -16 3 -11 11 -19 18
-17 6 3 43 -20 81 -50 254 -204 726 -472 1096 -621 l147 -59 -64 -47 -65 -47
-152 41 c-234 63 -623 195 -646 218 -21 21 -80 42 -119 42 -26 0 -262 99 -393
165 -49 25 -98 45 -109 45 -11 0 -23 5 -26 10 -7 11 -69 41 -95 46 -8 2 -20
10 -26 18 -6 9 -19 16 -28 16 -9 0 -19 7 -22 15 -4 8 -10 15 -15 15 -5 0 -57
33 -116 73 -60 41 -128 85 -153 98 -91 49 -110 70 -103 113 7 44 -4 47 -19 5
-7 -21 -13 -27 -18 -18 -5 7 -6 18 -3 26 3 8 -2 13 -16 13 -12 0 -21 6 -21 13
0 6 -18 22 -39 34 -49 28 -184 173 -263 284 -205 285 -228 515 -82 804 38 75
56 101 143 209 233 288 858 617 1313 690 120 20 358 15 443 -8z m-3 -451 c-11
-62 -152 -226 -446 -521 -286 -286 -546 -520 -558 -502 -25 38 -49 149 -49
223 0 209 121 403 341 548 111 72 355 190 478 231 135 44 138 44 192 43 39 -2
45 -5 42 -22z m-1262 -1926 c38 -24 70 -46 69 -49 0 -3 -53 -45 -117 -95 -354
-274 -626 -510 -832 -721 -174 -178 -235 -257 -298 -384 -47 -95 -47 -95 -47
-200 0 -124 14 -158 92 -231 99 -93 242 -138 468 -147 l150 -6 -55 -13 c-115
-27 -271 -52 -430 -68 -283 -30 -475 -7 -563 66 -64 53 -127 202 -127 302 0
148 156 432 396 721 120 145 441 475 781 802 l232 223 105 -78 c58 -43 137
-98 176 -122z m383 -216 c112 -57 172 -93 170 -101 -3 -7 1 -19 7 -27 11 -13
8 -15 -18 -15 -82 0 -540 -101 -767 -169 -55 -16 -101 -28 -103 -26 -2 2 97
83 220 181 122 97 241 192 263 210 22 18 43 33 47 34 4 0 85 -39 181 -87z
m1954 -407 c119 -37 341 -97 538 -146 129 -32 109 -33 -100 -4 -176 24 -645
111 -645 119 0 5 83 65 89 65 4 0 56 -16 118 -34z m-997 -301 c0 -13 -83 -44
-140 -51 l-65 -8 49 -6 49 -5 -149 -86 c-720 -418 -1251 -609 -1691 -609
l-103 0 29 48 c48 77 156 146 318 201 50 17 187 77 304 132 258 122 396 182
558 243 122 46 340 108 434 121 42 6 47 5 48 -11 0 -18 1 -17 8 1 6 15 20 21
62 26 68 7 289 11 289 4z m555 -21 c318 -60 639 -248 838 -492 77 -94 217
-302 217 -323 0 -9 14 -46 30 -83 54 -120 103 -363 81 -405 -9 -16 -9 -21 0
-21 17 0 5 -225 -20 -365 -31 -175 -31 -175 -53 -175 -28 0 -227 47 -328 77
-96 29 -80 28 -440 21 -354 -7 -654 -42 -1144 -133 -631 -118 -1063 -244
-1395 -407 -130 -63 -152 -79 -224 -150 -59 -57 -83 -75 -89 -66 -168 249
-263 608 -261 988 0 199 17 304 59 375 14 25 24 54 22 63 -5 16 13 22 151 46
320 57 637 153 1056 319 391 155 733 339 1165 625 164 109 200 129 225 125 17
-2 66 -11 110 -19z m1086 -1882 c13 -6 13 -11 -6 -38 l-20 -30 -49 38 -48 38
54 -1 c29 0 60 -3 69 -7z m89 -1041 c554 -75 932 -223 1096 -430 260 -327 186
-819 -191 -1270 -276 -330 -736 -651 -1380 -962 -290 -140 -812 -359 -855
-359 -9 0 -43 -13 -76 -29 -47 -23 -761 -271 -781 -271 -3 0 20 21 51 47 74
61 134 163 96 163 -5 0 -10 -9 -10 -19 0 -63 -195 -171 -390 -215 -24 -5 -24
-5 5 19 26 21 48 33 115 65 8 4 15 13 15 21 0 7 47 39 105 71 165 92 260 161
351 255 196 204 270 406 240 660 -69 604 -746 1256 -1542 1488 -258 75 -466
100 -753 92 -275 -8 -543 -54 -881 -152 -51 -14 177 92 314 146 588 234 1505
454 2451 588 413 59 631 82 1055 115 28 2 221 2 430 1 318 -3 405 -7 535 -24z
m-5142 -862 c-3 -8 -7 -3 -11 10 -4 17 -3 21 5 13 5 -5 8 -16 6 -23z m2730
-1404 c122 -162 251 -311 315 -363 28 -24 84 -74 123 -112 l71 -68 -51 -50
c-28 -27 -78 -64 -111 -83 -33 -18 -98 -58 -145 -89 -47 -30 -90 -59 -96 -63
-22 -13 -118 292 -158 500 -35 184 -66 476 -48 458 5 -5 50 -64 100 -130z"/>
<path d="M9682 14201 c-56 -5 -67 -10 -93 -39 -16 -18 -29 -39 -29 -48 0 -23
55 -74 80 -74 56 0 145 -65 201 -147 28 -40 29 -43 9 -43 -30 0 -24 -17 8 -23
25 -5 32 -14 47 -62 9 -31 23 -100 30 -153 11 -84 10 -101 -3 -130 -10 -20
-21 -31 -31 -28 -9 2 -29 7 -45 11 l-30 6 36 -43 c57 -70 105 -91 212 -93 50
-1 108 -7 129 -14 105 -35 369 66 472 181 38 41 74 110 75 139 0 9 7 19 15 23
17 6 20 42 5 51 -6 4 -23 34 -39 68 -20 45 -47 80 -98 128 -149 140 -475 266
-733 284 -47 3 -101 7 -120 9 -19 1 -64 0 -98 -3z m319 -167 c114 -21 207 -49
310 -94 88 -37 183 -89 177 -95 -2 -2 -44 2 -93 10 -50 7 -135 16 -190 19
-193 13 -191 12 -220 62 -15 25 -40 60 -57 79 -35 40 -36 40 73 19z"/>
<path d="M11415 14289 c-88 -12 -197 -49 -223 -74 l-24 -22 64 -57 c47 -43
105 -79 230 -141 207 -105 326 -184 409 -273 65 -68 206 -258 269 -361 31 -49
32 -55 17 -66 -16 -11 -15 -14 6 -28 20 -13 39 -14 113 -7 49 5 108 15 131 24
121 43 306 206 406 358 116 174 140 289 82 384 -36 57 -107 104 -202 134 -294
91 -1026 165 -1278 129z m162 -113 c98 -14 230 -29 293 -35 451 -43 713 -87
843 -143 79 -34 86 -74 31 -188 -42 -88 -115 -190 -181 -251 -43 -40 -301
-219 -315 -219 -3 0 -9 17 -13 38 -22 120 -122 294 -246 426 -109 117 -221
195 -432 301 -103 52 -181 95 -173 95 8 0 95 -11 193 -24z"/>
<path d="M3035 13749 c-222 -23 -547 -93 -729 -156 -205 -70 -406 -184 -406
-229 0 -7 11 -25 24 -40 23 -28 24 -28 79 -15 139 31 506 -43 825 -165 233
-90 572 -259 572 -286 0 -4 -10 -8 -22 -8 -13 0 -28 -4 -34 -8 -41 -26 510 0
716 34 394 66 626 271 517 457 -33 57 -103 111 -215 166 -261 131 -559 221
-827 251 -105 12 -385 11 -500 -1z m555 -155 c258 -37 594 -150 787 -266 88
-52 101 -90 54 -150 -54 -68 -329 -162 -739 -252 l-103 -23 -45 34 c-240 184
-753 403 -1129 483 -54 11 -101 22 -102 24 -7 7 262 77 403 105 338 68 608 82
874 45z"/>
<path d="M4430 12344 c-19 -2 -105 -11 -190 -20 -159 -16 -321 -47 -470 -91
-47 -14 -100 -25 -118 -24 -19 0 -35 -5 -38 -13 -3 -7 -43 -29 -89 -47 -47
-19 -85 -37 -85 -40 0 -6 58 -3 118 5 12 2 22 1 22 -2 0 -3 -14 -62 -31 -130
-26 -105 -29 -128 -19 -147 11 -21 9 -29 -26 -77 -147 -203 -318 -421 -394
-502 -50 -53 -90 -100 -90 -105 0 -23 15 -43 42 -57 26 -14 43 -13 181 6 84
12 170 25 192 30 127 28 531 98 780 135 442 66 733 142 990 258 295 133 419
244 418 372 -1 146 -183 319 -413 394 -148 48 -193 53 -475 56 -148 2 -286 1
-305 -1z m-689 -231 c-25 -44 -28 -46 -33 -14 -4 27 -2 31 19 31 20 0 22 -3
14 -17z"/>
<path d="M8070 7830 c0 -5 7 -10 15 -10 8 0 15 5 15 10 0 6 -7 10 -15 10 -8 0
-15 -4 -15 -10z"/>
<path d="M8929 3361 c-372 -6 -398 -7 -418 -25 -29 -26 -28 -71 2 -91 14 -8
78 -22 148 -30 322 -40 625 -142 844 -286 96 -63 237 -203 284 -282 130 -221
145 -474 44 -782 -32 -99 -115 -277 -173 -370 -118 -190 -140 -230 -140 -254
0 -17 -16 -42 -47 -75 -51 -52 -43 -52 22 0 35 28 42 31 58 19 14 -10 27 -11
50 -3 65 20 64 20 45 27 -33 12 74 111 207 192 411 249 711 481 889 687 217
252 306 427 308 608 3 345 -348 575 -993 649 -161 19 -571 24 -1130 16z"/>
<path d="M11862 7058 c-7 -7 -12 -15 -12 -20 0 -12 28 2 34 18 7 17 -6 18 -22
2z"/>
<path d="M11600 6930 c0 -5 5 -10 10 -10 6 0 10 5 10 10 0 6 -4 10 -10 10 -5
0 -10 -4 -10 -10z"/>
</g>
</svg>
